# AST/ASF file generated using VICON BodyLanguage
# -----------------------------------------------
:version 1.10
:name VICON
:units
  mass 1.0
  length 0.45
  angle deg
:documentation
   .ast/.asf automatically generated from VICON data using
   VICON BodyBuilder and BodyLanguage model FoxedUp or BRILLIANT.MOD
:root
   order TX TY TZ RX RY RZ
   axis XYZ
   position 0 0 0  
   orientation 0 0 0 
:bonedata
  begin
     id 1 
     name lhipjoint
     direction 0.54267 -0.795011 0.271047 
     length 2.39899 
     axis 0 0 0  XYZ
  end
  begin
     id 2 
     name lfemur
     direction 0.34202 -0.939693 0  
     length 7.49701  
     axis 0 0 20  XYZ
    dof rx ry rz
    limits (-160.0 20.0)
           (-70.0 70.0)
           (-60.0 70.0)
  end
  begin
     id 3 
     name ltibia
     direction 0.34202 -0.939693 0   
     length 8.1668   
     axis 0 0 20   XYZ
    dof rx
    limits (-10.0 170.0)
  end
  begin
     id 4 
     name lfoot
     direction 0.0736283 -0.202292 0.976554   
     length 2.13544   
     axis -90 7.62852e-016 20   XYZ
    dof rx rz
    limits (-45.0 90.0)
           (-70.0 20.0)
  end
  begin
     id 5 
     name ltoes
     direction 1.53557e-011 -4.22024e-011 1   
     length 1.07411   
     axis -90 7.62852e-016 20   XYZ
    dof rx
    limits (-90.0 20.0)
  end
  begin
     id 6 
     name rhipjoint
     direction -0.538061 -0.797813 0.272002   
     length 2.39057  
     axis 0 0 0  XYZ 
  end
  begin
     id 7 
     name rfemur
     direction -0.34202 -0.939693 0   
     length 7.50152   
     axis 0 0 -20   XYZ
    dof rx ry rz
    limits (-160.0 20.0)
           (-70.0 70.0)
           (-70.0 60.0)
  end
  begin
     id 8 
     name rtibia
     direction -0.34202 -0.939693 0   
     length 8.05793   
     axis 0 0 -20   XYZ
    dof rx
    limits (-10.0 170.0)
 end
 begin
     id 9 
     name rfoot
     direction -0.0765195 -0.210236 0.974652   
     length 2.28698  
     axis -90 -7.62852e-016 -20   XYZ
    dof rx rz
    limits (-45.0 90.0)
           (-20.0 70.0)
  end
  begin
     id 10 
     name rtoes
     direction -1.53542e-011 -4.21847e-011 1   
     length 1.14762   
     axis -90 -7.62852e-016 -20   XYZ
    dof rx
    limits (-90.0 20.0)
  end
  begin
     id 11 
     name lowerback
     direction -0.0217239 0.996592 -0.0795765   
     length 2.08176   
     axis 0 0 0   XYZ
    dof rx ry rz
    limits (-20.0 45.0)
           (-30.0 30.0)
           (-30.0 30.0)
  end
  begin
     id 12 
     name upperback
     direction -0.00563773 0.999651 -0.0258155   
     length 2.08898   
     axis 0 0 0   XYZ
    dof rx ry rz
    limits (-20.0 45.0)
           (-30.0 30.0)
           (-30.0 30.0)
  end
  begin
     id 13 
     name thorax
     direction 0.0032706 0.999923 0.0119599   
     length 2.0968   
     axis 0 0 0   XYZ
    dof rx ry rz
    limits (-20.0 45.0)
           (-30.0 30.0)
           (-30.0 30.0)
  end
  begin
     id 14 
     name lowerneck
     direction -0.0285886 0.99568 0.0883427   
     length 1.81272   
     axis 0 0 0   XYZ
    dof rx ry rz
    limits (-20.0 45.0)
           (-30.0 30.0)
           (-30.0 30.0)
  end
  begin
     id 15 
     name upperneck
     direction 0.0807535 0.97985 -0.18268   
     length 1.82518   
     axis 0 0 0   XYZ
    dof rx ry rz
    limits (-20.0 45.0)
           (-30.0 30.0)
           (-30.0 30.0)
  end
  begin
     id 16
     name head
     direction 0.0236605 0.997053 -0.0729767  
     length 1.84443  
     axis 0 0 0   XYZ
    dof rx ry rz
    limits (-20.0 45.0)
           (-30.0 30.0)
           (-30.0 30.0)
  end
  begin
     id 17 
     name lclavicle
     direction 0.918986 0.39378 -0.0200683  
     length 3.27822  
     axis 0 0 0   XYZ
    dof ry rz
    limits (-20.0 10.0)
           (0.0 20.0)
  end
  begin
     id 18 
     name lhumerus
     direction 1 -4.4897e-011 2.09544e-027   
     length 5.5568   
     axis 180 -30 -90   XYZ
    dof rx ry rz
    limits (-60.0 90.0)
           (-90.0 90.0)
           (-90.0 90.0)
  end
  begin
     id 19
     name lradius
     direction 1 -4.48957e-011 -1.27696e-026   
     length 3.63979   
     axis 180 -30 -90   XYZ
    dof rx
    limits (-10.0 170.0)
  end
  begin
     id 20
     name lwrist
     direction 1 -4.49001e-011 -1.49001e-026   
     length 1.8199   
     axis 9.0955e-015 90 90   XYZ
    dof ry
    limits (-180.0 0.0)
 end
  begin
     id 21 
     name lhand
     direction 1 -4.48709e-011 -2.9758e-026   
     length 0.569419   
     axis 1.90115e-014 90 90   XYZ
    dof rx rz
    limits (-90.0 90.0)
           (-45.0 45.0)
  end
  begin
     id 22 
     name lfingers
     direction 1 -4.49175e-011 -5.96505e-026   
     length 0.45908   
     axis 3.80223e-014 90 90   XYZ
    dof rx
    limits (0.0 90.0)
  end
  begin
     id 23
     name lthumb
     direction 0.707107 -6.34864e-011 0.707107   
     length 0.65915   
     axis -90 45 -3.84942e-014   XYZ
    dof rx rz
    limits (-45.0 45.0)
           (-45.0 45.0)
  end
  begin
     id 24 
     name rclavicle
     direction -0.911913 0.396426 -0.106115   
     length 3.46301  
     axis 0 0 0   XYZ 
    dof ry rz
    limits (-10.0 20.0)
           (-20.0 0.0)
  end
  begin
     id 25 
     name rhumerus
     direction -1 -4.48965e-011 7.78516e-028  
     length 5.34339   
     axis 180 30 90   XYZ
    dof rx ry rz
    limits (-90.0 60.0)
           (-90.0 90.0)
           (-90.0 90.0)
  end
  begin
     id 26 
     name rradius
     direction -1 -4.48948e-011 -5.79823e-027   
     length 3.65101   
     axis 180 30 90   XYZ
    dof rx
    limits (-10.0 170.0)
  end
  begin
     id 27 
     name rwrist
     direction -1 -4.48995e-011 -1.48996e-026   
     length 1.8255   
     axis 9.0955e-015 -90 -90   XYZ
    dof ry
    limits (-180.0 0.0)
  end
  begin
     id 28
     name rhand
     direction -1 -4.48957e-011 -2.97937e-026   
     length 0.694249   
     axis 1.90115e-014 -90 -90   XYZ
    dof rx rz
    limits (-90.0 90.0)
           (-45.0 45.0)
  end
  begin
     id 29
     name rfingers
     direction -1 -4.4898e-011 -5.95943e-026   
     length 0.559721   
     axis 3.80223e-014 -90 -90   XYZ
    dof rx
    limits (0.0 90.0)
  end
  begin
     id 30
     name rthumb
     direction -0.707107 -6.34969e-011 0.707107   
     length 0.803651   
     axis -90 -45 3.84942e-014   XYZ
    dof rx rz
    limits (-45.0 45.0)
           (-45.0 45.0)
  end
:hierarchy
  begin
    root lhipjoint rhipjoint lowerback
    lhipjoint lfemur
    lfemur ltibia
    ltibia lfoot
    lfoot ltoes
    rhipjoint rfemur
    rfemur rtibia
    rtibia rfoot
    rfoot rtoes
    lowerback upperback
    upperback thorax
    thorax lowerneck lclavicle rclavicle
    lowerneck upperneck
    upperneck head
    lclavicle lhumerus
    lhumerus lradius
    lradius lwrist
    lwrist lhand lthumb
    lhand lfingers
    rclavicle rhumerus
    rhumerus rradius
    rradius rwrist
    rwrist rhand rthumb
    rhand rfingers
  end

#!OML:ASF H:\Terrain\Walking\May29\JustinRory\rory.ASF
:FULLY-SPECIFIED
:DEGREES
1
root 9.47686 18.414 -13.4598 2.04814 -6.67958 2.51492
lowerback -3.76997 -1.11169 -2.40166
upperback -0.703859 -1.39632 0.62954
thorax 1.46332 -0.709658 1.92284
lowerneck -4.69179 -12.9298 -10.8998
upperneck 18.7485 -17.8203 5.97567
head 8.09737 -8.82926 1.98352
rclavicle 9.83363e-015 -5.56597e-015
rhumerus -43.2672 -20.0499 -68.8607
rradius 35.5295
rwrist 5.44328
rhand -13.2362 31.7305
rfingers 7.12502
rthumb 12.8655 2.14699
lclavicle 9.83363e-015 -5.56597e-015
lhumerus -37.3211 25.2979 71.6227
lradius 32.0566
lwrist 3.41067
lhand -27.7144 19.3277
lfingers 7.12502
lthumb -1.1101 49.3045
rfemur -1.57741 12.6441 17.111
rtibia 13.0772
rfoot -9.98842 -17.4044
rtoes 11.5666
lfemur 3.77772 -6.87817 -15.5889
ltibia 1.75511
lfoot -9.36477 14.2467
ltoes -8.41018
2
root 9.49748 18.4112 -13.4417 1.842 -6.66133 2.98944
lowerback -3.51517 -1.1559 -2.82595
upperback -0.779236 -1.44563 0.555195
thorax 1.2543 -0.732241 2.0879
lowerneck -4.77026 -12.8195 -10.8182
upperneck 18.9753 -17.6182 5.64568
head 8.13024 -8.75143 1.88384
rclavicle 3.91544e-014 -2.78299e-015
rhumerus -43.4679 -19.6651 -68.9027
rradius 36.0477
rwrist 5.07282
rhand -13.6024 31.2699
rfingers 7.12502
rthumb 12.5125 1.66455
lclavicle 3.91544e-014 -2.78299e-015
lhumerus -37.8674 25.2589 71.4732
lradius 31.8032
lwrist 3.78415
lhand -28.6739 16.8193
lfingers 7.12502
lthumb -2.0368 46.7894
rfemur -1.55106 12.3415 16.5261
rtibia 13.4702
rfoot -10.3064 -17.1844
rtoes 11.5926
lfemur 4.92574 -6.93586 -16.1909
ltibia -2.38542e-014
lfoot -8.60671 14.5514
ltoes -9.10152
3
root 9.51295 18.4113 -13.4285 1.75675 -6.77443 3.29522
lowerback -3.41771 -1.1454 -3.02955
upperback -0.836525 -1.42664 0.442279
thorax 1.14185 -0.720881 2.08961
lowerneck -4.65653 -12.6451 -10.8538
upperneck 19.0098 -17.4027 5.72618
head 8.11344 -8.64928 1.94895
rclavicle -2.64508e-014 6.36111e-015
rhumerus -43.4425 -19.3475 -69.136
rradius 36.1335
rwrist 4.64975
rhand -14.4076 30.7795
rfingers 7.12502
rthumb 11.736 1.12825
lclavicle -2.64508e-014 6.36111e-015
lhumerus -38.1418 24.859 71.4377
lradius 31.263
lwrist 5.41197
lhand -30.2725 13.8789
lfingers 7.12502
lthumb -3.5806 43.8286
rfemur -1.52029 12.2938 16.1331
rtibia 13.5689
rfoot -10.233 -17.097
rtoes 11.0115
lfemur 5.05318 -6.83266 -16.6133
ltibia -1.74931e-014
lfoot -8.67207 14.4814
ltoes -8.74437
4
root 9.52394 18.4151 -13.4249 1.87488 -6.78121 3.33339
lowerback -3.44122 -1.1543 -3.02966
upperback -0.862614 -1.43783 0.421328
thorax 1.12834 -0.725941 2.06747
lowerneck -4.83927 -12.5131 -10.8745
upperneck 19.1521 -17.2265 5.81211
head 8.18725 -8.55394 1.98518
rclavicle -6.23066e-015 -7.95139e-015
rhumerus -43.5195 -19.2158 -69.3614
rradius 36.7968
rwrist 4.38335
rhand -14.7959 30.3969
rfingers 7.12502
rthumb 11.3616 0.724663
lclavicle -6.23066e-015 -7.95139e-015
lhumerus -38.2419 25.2606 70.9906
lradius 31.1423
lwrist 3.84044
lhand -27.8804 18.3604
lfingers 7.12502
lthumb -1.27042 48.3363
rfemur -1.65827 12.478 16.019
rtibia 13.6307
rfoot -10.5019 -17.1416
rtoes 12.1753
lfemur 4.90785 -6.81794 -16.6808
ltibia 1.11319e-014
lfoot -8.59004 14.4542
ltoes -8.68633
5
root 9.5363 18.4177 -13.4199 1.94103 -6.85613 3.19881
lowerback -3.42792 -1.13942 -2.84269
upperback -0.855523 -1.4252 0.444449
thorax 1.12356 -0.719231 1.98712
lowerneck -5.12909 -12.4203 -10.7855
upperneck 19.3171 -17.0694 5.71374
head 8.26234 -8.47209 1.93829
rclavicle -2.81902e-014 -4.77083e-015
rhumerus -43.5075 -19.0997 -69.5692
rradius 37.3197
rwrist 4.1893
rhand -15.0217 30.4878
rfingers 7.12502
rthumb 11.1439 0.803677
lclavicle -2.81902e-014 -4.77083e-015
lhumerus -38.2868 25.4674 70.6394
lradius 30.9034
lwrist 3.35126
lhand -26.5903 20.9907
lfingers 7.12502
lthumb -0.0243939 50.9704
rfemur -1.69697 12.4972 16.0749
rtibia 13.5904
rfoot -10.7302 -16.8886
rtoes 13.659
lfemur 4.86189 -6.73462 -16.577
ltibia -3.18055e-015
lfoot -8.52582 14.4689
ltoes -9.28165
6
root 9.54903 18.4168 -13.4092 1.96253 -6.98172 3.01652
lowerback -3.54915 -1.1285 -2.6023
upperback -0.78683 -1.41537 0.478789
thorax 1.25653 -0.716242 1.88481
lowerneck -5.22208 -12.3049 -10.5964
upperneck 19.2354 -16.8817 5.56301
head 8.20321 -8.38136 1.88507
rclavicle 1.67849e-014 1.98785e-015
rhumerus -43.246 -18.9588 -69.8636
rradius 37.4582
rwrist 3.95247
rhand -15.3592 30.7328
rfingers 7.12502
rthumb 10.8183 1.03147
lclavicle 1.67849e-014 1.98785e-015
lhumerus -38.3668 25.6992 70.2489
lradius 30.5145
lwrist 3.28185
lhand -27.102 21.0919
lfingers 7.12502
lthumb -0.518592 51.071
rfemur -1.62782 12.3786 16.2056
rtibia 13.4454
rfoot -10.5962 -16.6669
rtoes 13.3794
lfemur 4.92234 -6.6028 -16.4335
ltibia 4.77083e-015
lfoot -8.57279 14.4409
ltoes -9.29132
7
root 9.55988 18.4154 -13.3956 1.94611 -6.9696 2.99289
lowerback -3.55451 -1.14801 -2.55021
upperback -0.843865 -1.44371 0.475062
thorax 1.2011 -0.728929 1.85099
lowerneck -5.11114 -12.1803 -10.4372
upperneck 19.2158 -16.7014 5.3951
head 8.13168 -8.3036 1.84152
rclavicle -8.10669e-015 6.75868e-015
rhumerus -43.3173 -18.8659 -69.9891
rradius 37.6752
rwrist 3.71565
rhand -15.2781 30.6261
rfingers 7.12502
rthumb 10.8966 0.928838
lclavicle -8.10669e-015 6.75868e-015
lhumerus -38.846 26.0998 69.7479
lradius 30.0717
lwrist 2.61845
lhand -28.1546 18.6267
lfingers 7.12502
lthumb -1.5352 48.6009
rfemur -1.4248 12.3726 16.2134
rtibia 13.2133
rfoot -10.41 -16.7536
rtoes 12.7367
lfemur 4.10981 -6.60125 -16.496
ltibia 1.69307
lfoot -9.42482 14.177
ltoes -9.34028
8
root 9.5713 18.4127 -13.3841 1.89757 -6.96104 2.93568
lowerback -3.478 -1.15363 -2.50457
upperback -0.884718 -1.45572 0.505078
thorax 1.11664 -0.733359 1.85769
lowerneck -5.20159 -12.0951 -10.3795
upperneck 19.3578 -16.5744 5.3107
head 8.1717 -8.2436 1.81338
rclavicle 1.08151e-014 4.77083e-015
rhumerus -43.4208 -18.7948 -69.9772
rradius 37.7975
rwrist 3.54103
rhand -14.7793 30.6983
rfingers 7.12502
rthumb 11.3776 1.027
lclavicle 1.08151e-014 4.77083e-015
lhumerus -39.2684 26.3573 69.4327
lradius 29.6485
lwrist 2.29343
lhand -28.2259 17.7492
lfingers 7.12502
lthumb -1.60405 47.7229
rfemur -1.21986 12.1836 16.2743
rtibia 12.998
rfoot -9.96188 -16.7883
rtoes 10.8099
lfemur 3.49204 -6.6008 -16.5116
ltibia 3.06038
lfoot -10.1242 13.9648
ltoes -9.47816
9
root 9.58368 18.4118 -13.3731 1.87526 -7.02495 2.71928
lowerback -3.46727 -1.12004 -2.27294
upperback -0.794203 -1.41964 0.582864
thorax 1.19812 -0.716699 1.80845
lowerneck -5.65224 -12.0567 -10.5249
upperneck 19.6207 -16.5029 5.43096
head 8.35784 -8.19422 1.84383
rclavicle 3.22218e-014 8.34896e-015
rhumerus -43.2106 -18.6039 -70.1426
rradius 37.8953
rwrist 3.22958
rhand -14.6252 30.908
rfingers 7.12502
rthumb 11.5262 1.24488
lclavicle 3.22218e-014 8.34896e-015
lhumerus -39.2067 26.6249 69.3861
lradius 29.0386
lwrist 2.77434
lhand -28.0878 18.675
lfingers 7.12502
lthumb -1.47072 48.6497
rfemur -1.11947 11.8451 16.4771
rtibia 12.8807
rfoot -9.57636 -16.6004
rtoes 8.91796
lfemur 3.35534 -6.52998 -16.3329
ltibia 3.51169
lfoot -10.3962 13.8748
ltoes -9.13224
